<svg xmlns="http://www.w3.org/2000/svg" xmlns:xlink="http://www.w3.org/1999/xlink" width="1080" zoomAndPan="magnify" viewBox="0 0 810 809.999993" height="1080" preserveAspectRatio="xMidYMid meet" version="1.0"><defs><clipPath id="a7ad6afece"><path d="M 300 6.65625 L 509.476562 6.65625 L 509.476562 565 L 300 565 Z M 300 6.65625 " clip-rule="nonzero"/></clipPath><clipPath id="64a7e4fe99"><path d="M 324 643 L 485 643 L 485 803.15625 L 324 803.15625 Z M 324 643 " clip-rule="nonzero"/></clipPath><clipPath id="81886c4298"><path d="M 313.824219 126.246094 L 398 126.246094 L 398 211.035156 L 313.824219 211.035156 Z M 313.824219 126.246094 " clip-rule="nonzero"/></clipPath><clipPath id="84cded37f3"><path d="M 347 6.65625 L 383 6.65625 L 383 98 L 347 98 Z M 347 6.65625 " clip-rule="nonzero"/></clipPath><clipPath id="fee6ebbd6f"><path d="M 424.144531 71.539062 L 496.074219 71.539062 L 496.074219 148 L 424.144531 148 Z M 424.144531 71.539062 " clip-rule="nonzero"/></clipPath><clipPath id="99ae12e914"><path d="M 329.089844 318.214844 L 398.875 318.214844 L 398.875 388.199219 L 329.089844 388.199219 Z M 329.089844 318.214844 " clip-rule="nonzero"/></clipPath><clipPath id="71ff11bb3e"><path d="M 357 219.507812 L 386 219.507812 L 386 295 L 357 295 Z M 357 219.507812 " clip-rule="nonzero"/></clipPath><clipPath id="ac1b21d7a3"><path d="M 420.144531 273.0625 L 479.582031 273.0625 L 479.582031 336.5 L 420.144531 336.5 Z M 420.144531 273.0625 " clip-rule="nonzero"/></clipPath><clipPath id="e173d3ba90"><path d="M 401.332031 471.15625 L 447.738281 471.15625 L 447.738281 518.054688 L 401.332031 518.054688 Z M 401.332031 471.15625 " clip-rule="nonzero"/></clipPath><clipPath id="b8da08f513"><path d="M 347.601562 441 L 387.078125 441 L 387.078125 483.410156 L 347.601562 483.410156 Z M 347.601562 441 " clip-rule="nonzero"/></clipPath><clipPath id="f70883ce6a"><path d="M 332 691 L 479 691 L 479 775.925781 L 332 775.925781 Z M 332 691 " clip-rule="nonzero"/></clipPath><clipPath id="e29b6f3dc6"><path d="M 331.929688 690.425781 L 479.679688 690.425781 L 479.679688 775.925781 L 331.929688 775.925781 Z M 331.929688 690.425781 " clip-rule="nonzero"/></clipPath></defs><g clip-path="url(#a7ad6afece)"><path fill="#f67828" d="M 404.585938 6.65625 C 341.425781 6.65625 292.480469 62.316406 300.96875 125.054688 L 359.601562 524.8125 C 362.574219 547.375 381.882812 564.351562 404.726562 564.351562 C 427.5 564.351562 446.8125 547.375 449.921875 524.8125 L 508.558594 125.054688 C 516.691406 62.316406 467.816406 6.65625 404.585938 6.65625 " fill-opacity="1" fill-rule="nonzero"/></g><g clip-path="url(#64a7e4fe99)"><path fill="#f67828" d="M 404.585938 643.992188 C 360.523438 643.992188 324.945312 679.636719 324.945312 723.703125 C 324.945312 767.695312 360.523438 803.34375 404.585938 803.34375 C 448.648438 803.34375 484.226562 767.695312 484.226562 723.703125 C 484.226562 679.636719 448.648438 643.992188 404.585938 643.992188 " fill-opacity="1" fill-rule="nonzero"/></g><g clip-path="url(#81886c4298)"><path fill="#ffffff" d="M 386.925781 181.636719 C 380.109375 175.175781 371.296875 172.636719 362.363281 170.679688 C 354.800781 169.023438 347.464844 166.78125 341.179688 162.097656 C 329.5625 153.449219 323.082031 140.125 319.246094 126.386719 C 307.949219 141.234375 314.742188 168.542969 335.53125 189.332031 C 353.933594 207.730469 377.445312 215.167969 392.898438 208.792969 C 397.238281 207.003906 399.148438 201.910156 397.273438 197.605469 C 394.734375 191.769531 391.726562 186.191406 386.925781 181.636719 " fill-opacity="1" fill-rule="nonzero"/></g><path fill="#ffffff" d="M 334.734375 115.015625 C 330.242188 116.347656 327.855469 121.242188 329.285156 125.707031 C 331.308594 132.03125 333.992188 138.121094 337.722656 143.671875 C 338.207031 144.394531 338.71875 145.109375 339.238281 145.808594 C 339.324219 145.917969 339.714844 146.425781 339.796875 146.53125 C 340.039062 146.828125 340.28125 147.125 340.523438 147.417969 C 341.539062 148.617188 342.609375 149.769531 343.738281 150.863281 C 344.792969 151.882812 345.90625 152.820312 347.042969 153.742188 C 347.050781 153.746094 347.050781 153.746094 347.054688 153.75 C 347.15625 153.824219 347.257812 153.902344 347.359375 153.976562 C 347.628906 154.171875 347.902344 154.367188 348.171875 154.558594 C 348.640625 154.886719 349.121094 155.203125 349.601562 155.507812 C 353.117188 157.738281 356.378906 159.09375 360.304688 160.191406 C 364.140625 161.265625 368.066406 161.957031 371.929688 162.925781 C 381.6875 165.378906 391.132812 170.058594 397.558594 178 C 400.84375 182.0625 403.40625 186.570312 405.515625 191.339844 C 406.175781 192.824219 406.792969 194.332031 407.398438 195.84375 C 416.238281 180.574219 409.097656 155.082031 389.4375 135.421875 C 372.066406 118.050781 350.136719 110.449219 334.734375 115.015625 " fill-opacity="1" fill-rule="nonzero"/><g clip-path="url(#84cded37f3)"><path fill="#ffffff" d="M 382.082031 77.949219 C 381.878906 70.273438 378.25 63.714844 374.21875 57.417969 C 370.804688 52.085938 367.863281 46.550781 366.933594 40.207031 C 365.21875 28.492188 369.175781 17.042969 374.898438 6.886719 C 359.785156 8.9375 347.925781 28.652344 347.925781 52.6875 C 347.925781 73.960938 357.21875 91.855469 369.839844 97.101562 C 373.382812 98.574219 377.433594 96.734375 378.835938 93.164062 C 380.738281 88.320312 382.226562 83.359375 382.082031 77.949219 " fill-opacity="1" fill-rule="nonzero"/></g><path fill="#ffffff" d="M 390.425781 9.265625 C 387.054688 7.4375 382.847656 8.886719 381.09375 12.296875 C 378.609375 17.121094 376.636719 22.191406 375.585938 27.558594 C 375.449219 28.257812 375.332031 28.964844 375.226562 29.671875 C 375.214844 29.785156 375.148438 30.300781 375.132812 30.410156 C 375.101562 30.722656 375.070312 31.03125 375.042969 31.34375 C 374.933594 32.625 374.886719 33.910156 374.90625 35.191406 C 374.929688 36.390625 375.03125 37.578125 375.152344 38.769531 C 375.15625 38.773438 375.15625 38.773438 375.15625 38.777344 C 375.171875 38.882812 375.1875 38.984375 375.203125 39.089844 C 375.242188 39.359375 375.285156 39.625 375.335938 39.894531 C 375.417969 40.355469 375.511719 40.8125 375.609375 41.269531 C 376.355469 44.589844 377.457031 47.257812 379.09375 50.164062 C 380.6875 53 382.5625 55.671875 384.230469 58.464844 C 388.453125 65.523438 391.207031 73.6875 390.332031 81.996094 C 389.882812 86.242188 388.757812 90.328125 387.222656 94.304688 C 386.742188 95.546875 386.230469 96.773438 385.703125 98 C 399.644531 94.28125 410.253906 75.417969 410.253906 52.6875 C 410.253906 32.601562 401.96875 15.53125 390.425781 9.265625 " fill-opacity="1" fill-rule="nonzero"/><path fill="#ffffff" d="M 436.367188 126.1875 C 441.957031 119.824219 443.945312 111.796875 445.40625 103.683594 C 446.644531 96.808594 448.417969 90.125 452.421875 84.296875 C 459.820312 73.535156 471.609375 67.242188 483.859375 63.320312 C 470.097656 53.640625 445.714844 60.691406 427.6875 80.132812 C 411.730469 97.339844 405.828125 118.78125 412.097656 132.492188 C 413.859375 136.339844 418.515625 137.890625 422.328125 136.054688 C 427.5 133.566406 432.425781 130.667969 436.367188 126.1875 " fill-opacity="1" fill-rule="nonzero"/><g clip-path="url(#fee6ebbd6f)"><path fill="#ffffff" d="M 494.632812 76.890625 C 493.277344 72.886719 488.789062 70.902344 484.816406 72.339844 C 479.183594 74.382812 473.785156 77.007812 468.910156 80.554688 C 468.273438 81.019531 467.648438 81.503906 467.035156 81.996094 C 466.941406 82.078125 466.496094 82.445312 466.40625 82.523438 C 466.144531 82.75 465.886719 82.980469 465.632812 83.210938 C 464.582031 84.164062 463.578125 85.167969 462.632812 86.222656 C 461.753906 87.207031 460.945312 88.242188 460.152344 89.300781 C 460.148438 89.304688 460.148438 89.304688 460.144531 89.308594 C 460.078125 89.402344 460.015625 89.496094 459.949219 89.59375 C 459.78125 89.84375 459.617188 90.089844 459.453125 90.34375 C 459.175781 90.78125 458.90625 91.21875 458.644531 91.664062 C 456.757812 94.910156 455.648438 97.890625 454.789062 101.46875 C 453.953125 104.960938 453.464844 108.527344 452.71875 112.039062 C 450.839844 120.914062 446.945312 129.585938 440.003906 135.648438 C 436.457031 138.746094 432.480469 141.207031 428.257812 143.269531 C 426.9375 143.914062 425.601562 144.523438 424.257812 145.117188 C 438.320312 152.566406 461.050781 145.265625 478.101562 126.882812 C 493.167969 110.636719 499.269531 90.617188 494.632812 76.890625 " fill-opacity="1" fill-rule="nonzero"/></g><g clip-path="url(#99ae12e914)"><path fill="#ffffff" d="M 389.425781 363.933594 C 383.800781 358.597656 376.527344 356.507812 369.152344 354.890625 C 362.910156 353.523438 356.855469 351.671875 351.667969 347.804688 C 342.082031 340.667969 336.730469 329.667969 333.566406 318.328125 C 324.242188 330.585938 329.847656 353.125 347.003906 370.28125 C 362.195312 385.472656 381.601562 391.609375 394.355469 386.347656 C 397.9375 384.871094 399.515625 380.664062 397.96875 377.113281 C 395.871094 372.296875 393.390625 367.691406 389.425781 363.933594 " fill-opacity="1" fill-rule="nonzero"/></g><path fill="#ffffff" d="M 346.347656 308.945312 C 342.640625 310.042969 340.671875 314.082031 341.851562 317.769531 C 343.519531 322.988281 345.734375 328.015625 348.8125 332.597656 C 349.214844 333.195312 349.636719 333.78125 350.066406 334.363281 C 350.136719 334.449219 350.460938 334.871094 350.527344 334.957031 C 350.726562 335.203125 350.925781 335.445312 351.128906 335.6875 C 351.964844 336.679688 352.847656 337.632812 353.78125 338.53125 C 354.648438 339.375 355.570312 340.148438 356.507812 340.90625 C 356.511719 340.910156 356.511719 340.914062 356.515625 340.914062 C 356.601562 340.976562 356.683594 341.039062 356.769531 341.101562 C 356.992188 341.265625 357.214844 341.425781 357.441406 341.582031 C 357.828125 341.851562 358.222656 342.113281 358.621094 342.367188 C 361.523438 344.207031 364.214844 345.324219 367.453125 346.230469 C 370.621094 347.117188 373.863281 347.6875 377.046875 348.488281 C 385.101562 350.511719 392.898438 354.375 398.203125 360.933594 C 400.914062 364.28125 403.027344 368.007812 404.773438 371.941406 C 405.316406 373.167969 405.824219 374.414062 406.324219 375.660156 C 413.621094 363.058594 407.726562 342.015625 391.5 325.785156 C 377.160156 311.449219 359.0625 305.175781 346.347656 308.945312 " fill-opacity="1" fill-rule="nonzero"/><g clip-path="url(#71ff11bb3e)"><path fill="#ffffff" d="M 385.429688 278.351562 C 385.261719 272.015625 382.265625 266.601562 378.9375 261.40625 C 376.121094 257.003906 373.691406 252.433594 372.925781 247.199219 C 371.507812 237.53125 374.777344 228.082031 379.5 219.695312 C 367.023438 221.390625 357.234375 237.664062 357.234375 257.5 C 357.234375 275.058594 364.90625 289.828125 375.324219 294.160156 C 378.25 295.375 381.589844 293.855469 382.75 290.910156 C 384.320312 286.910156 385.546875 282.816406 385.429688 278.351562 " fill-opacity="1" fill-rule="nonzero"/></g><path fill="#ffffff" d="M 392.316406 221.660156 C 389.535156 220.152344 386.0625 221.347656 384.613281 224.160156 C 382.5625 228.144531 380.933594 232.328125 380.066406 236.757812 C 379.953125 237.335938 379.855469 237.921875 379.769531 238.503906 C 379.761719 238.59375 379.703125 239.023438 379.695312 239.113281 C 379.667969 239.371094 379.640625 239.625 379.617188 239.882812 C 379.527344 240.9375 379.488281 242 379.507812 243.058594 C 379.523438 244.050781 379.609375 245.03125 379.710938 246.011719 C 379.710938 246.015625 379.710938 246.015625 379.710938 246.019531 C 379.726562 246.105469 379.738281 246.191406 379.75 246.277344 C 379.78125 246.496094 379.820312 246.71875 379.859375 246.941406 C 379.925781 247.320312 380.003906 247.699219 380.085938 248.078125 C 380.703125 250.816406 381.609375 253.019531 382.960938 255.417969 C 384.277344 257.757812 385.824219 259.960938 387.203125 262.265625 C 390.6875 268.09375 392.960938 274.835938 392.238281 281.691406 C 391.867188 285.195312 390.9375 288.570312 389.671875 291.851562 C 389.277344 292.875 388.851562 293.890625 388.417969 294.898438 C 399.921875 291.832031 408.679688 276.261719 408.679688 257.5 C 408.679688 240.921875 401.84375 226.832031 392.316406 221.660156 " fill-opacity="1" fill-rule="nonzero"/><path fill="#ffffff" d="M 430.234375 318.164062 C 434.847656 312.914062 436.488281 306.289062 437.695312 299.589844 C 438.714844 293.917969 440.179688 288.398438 443.484375 283.589844 C 449.59375 274.707031 459.324219 269.515625 469.433594 266.277344 C 458.074219 258.289062 437.953125 264.105469 423.070312 280.152344 C 409.898438 294.355469 405.027344 312.054688 410.203125 323.371094 C 411.65625 326.546875 415.5 327.828125 418.644531 326.3125 C 422.917969 324.257812 426.980469 321.867188 430.234375 318.164062 " fill-opacity="1" fill-rule="nonzero"/><g clip-path="url(#ac1b21d7a3)"><path fill="#ffffff" d="M 478.324219 277.476562 C 477.207031 274.171875 473.503906 272.535156 470.222656 273.722656 C 465.574219 275.40625 461.117188 277.574219 457.09375 280.503906 C 456.570312 280.886719 456.054688 281.285156 455.546875 281.691406 C 455.46875 281.757812 455.101562 282.0625 455.027344 282.128906 C 454.8125 282.3125 454.601562 282.503906 454.386719 282.695312 C 453.523438 283.480469 452.695312 284.308594 451.914062 285.179688 C 451.1875 285.992188 450.519531 286.847656 449.867188 287.71875 C 449.863281 287.722656 449.863281 287.722656 449.859375 287.726562 C 449.808594 287.804688 449.753906 287.882812 449.699219 287.960938 C 449.5625 288.167969 449.425781 288.371094 449.289062 288.582031 C 449.0625 288.941406 448.839844 289.304688 448.625 289.671875 C 447.0625 292.347656 446.148438 294.8125 445.441406 297.761719 C 444.75 300.648438 444.347656 303.589844 443.734375 306.488281 C 442.179688 313.8125 438.964844 320.96875 433.238281 325.972656 C 430.308594 328.53125 427.027344 330.5625 423.539062 332.265625 C 422.449219 332.796875 421.347656 333.300781 420.242188 333.792969 C 431.847656 339.941406 450.609375 333.914062 464.683594 318.742188 C 477.117188 305.332031 482.152344 288.808594 478.324219 277.476562 " fill-opacity="1" fill-rule="nonzero"/></g><g clip-path="url(#e173d3ba90)"><path fill="#ffffff" d="M 407.664062 501.792969 C 411.433594 498.21875 416.308594 496.816406 421.25 495.734375 C 425.433594 494.816406 429.492188 493.578125 432.96875 490.988281 C 439.394531 486.203125 442.976562 478.832031 445.101562 471.230469 C 451.351562 479.445312 447.589844 494.550781 436.09375 506.050781 C 425.914062 516.230469 412.910156 520.339844 404.359375 516.816406 C 401.960938 515.824219 400.902344 513.007812 401.941406 510.628906 C 403.34375 507.398438 405.007812 504.3125 407.664062 501.792969 " fill-opacity="1" fill-rule="nonzero"/></g><path fill="#ffffff" d="M 436.535156 464.945312 C 439.019531 465.679688 440.339844 468.386719 439.546875 470.855469 C 438.429688 474.355469 436.945312 477.722656 434.882812 480.792969 C 434.613281 481.195312 434.328125 481.589844 434.042969 481.976562 C 433.992188 482.035156 433.777344 482.316406 433.734375 482.375 C 433.601562 482.539062 433.464844 482.703125 433.332031 482.867188 C 432.769531 483.53125 432.179688 484.167969 431.554688 484.773438 C 430.96875 485.335938 430.355469 485.855469 429.722656 486.363281 C 429.722656 486.367188 429.722656 486.367188 429.71875 486.367188 C 429.664062 486.410156 429.605469 486.453125 429.550781 486.496094 C 429.402344 486.601562 429.25 486.710938 429.101562 486.816406 C 428.839844 486.996094 428.578125 487.171875 428.308594 487.34375 C 426.363281 488.574219 424.5625 489.324219 422.390625 489.933594 C 420.269531 490.527344 418.09375 490.90625 415.960938 491.445312 C 410.5625 492.800781 405.335938 495.390625 401.78125 499.78125 C 399.964844 502.027344 398.546875 504.523438 397.378906 507.160156 C 397.015625 507.984375 396.675781 508.816406 396.339844 509.652344 C 391.449219 501.207031 395.398438 487.105469 406.273438 476.230469 C 415.882812 466.621094 428.011719 462.417969 436.535156 464.945312 " fill-opacity="1" fill-rule="nonzero"/><path fill="#ffffff" d="M 410.34375 444.441406 C 410.457031 440.195312 412.464844 436.566406 414.695312 433.082031 C 416.582031 430.132812 418.210938 427.070312 418.722656 423.5625 C 419.671875 417.082031 417.484375 410.75 414.316406 405.132812 C 422.679688 406.265625 429.238281 417.171875 429.238281 430.464844 C 429.238281 442.234375 424.097656 452.132812 417.113281 455.035156 C 415.15625 455.847656 412.914062 454.832031 412.140625 452.855469 C 411.085938 450.175781 410.261719 447.433594 410.34375 444.441406 " fill-opacity="1" fill-rule="nonzero"/><path fill="#ffffff" d="M 405.726562 406.449219 C 407.59375 405.4375 409.917969 406.238281 410.890625 408.125 C 412.265625 410.792969 413.355469 413.597656 413.9375 416.566406 C 414.011719 416.953125 414.078125 417.34375 414.132812 417.734375 C 414.140625 417.796875 414.179688 418.082031 414.1875 418.144531 C 414.203125 418.316406 414.222656 418.488281 414.238281 418.660156 C 414.296875 419.367188 414.324219 420.078125 414.3125 420.789062 C 414.300781 421.453125 414.242188 422.109375 414.175781 422.765625 C 414.175781 422.769531 414.175781 422.769531 414.175781 422.773438 C 414.164062 422.828125 414.15625 422.886719 414.148438 422.945312 C 414.125 423.09375 414.101562 423.242188 414.074219 423.390625 C 414.03125 423.644531 413.976562 423.898438 413.921875 424.152344 C 413.511719 425.988281 412.902344 427.464844 411.996094 429.070312 C 411.113281 430.640625 410.078125 432.117188 409.152344 433.660156 C 406.816406 437.566406 405.296875 442.082031 405.78125 446.679688 C 406.027344 449.027344 406.652344 451.289062 407.5 453.488281 C 407.765625 454.175781 408.050781 454.851562 408.339844 455.53125 C 400.628906 453.472656 394.761719 443.039062 394.761719 430.464844 C 394.761719 419.355469 399.34375 409.914062 405.726562 406.449219 " fill-opacity="1" fill-rule="nonzero"/><path fill="#ffffff" d="M 380.316406 471.121094 C 377.222656 467.601562 376.125 463.164062 375.316406 458.671875 C 374.632812 454.871094 373.652344 451.171875 371.433594 447.949219 C 367.339844 442 360.820312 438.519531 354.042969 436.347656 C 361.660156 430.996094 375.144531 434.894531 385.117188 445.648438 C 393.941406 455.164062 397.207031 467.027344 393.738281 474.609375 C 392.765625 476.738281 390.191406 477.597656 388.082031 476.582031 C 385.21875 475.203125 382.496094 473.601562 380.316406 471.121094 " fill-opacity="1" fill-rule="nonzero"/><g clip-path="url(#b8da08f513)"><path fill="#ffffff" d="M 348.085938 443.855469 C 348.835938 441.640625 351.316406 440.542969 353.515625 441.339844 C 356.632812 442.464844 359.617188 443.917969 362.3125 445.882812 C 362.667969 446.140625 363.011719 446.40625 363.351562 446.679688 C 363.40625 446.722656 363.648438 446.925781 363.699219 446.972656 C 363.84375 447.097656 363.988281 447.222656 364.128906 447.351562 C 364.707031 447.875 365.261719 448.433594 365.785156 449.015625 C 366.273438 449.5625 366.71875 450.132812 367.160156 450.71875 C 367.160156 450.71875 367.160156 450.71875 367.164062 450.722656 C 367.199219 450.773438 367.234375 450.828125 367.269531 450.878906 C 367.363281 451.019531 367.453125 451.15625 367.542969 451.296875 C 367.699219 451.539062 367.847656 451.78125 367.992188 452.027344 C 369.039062 453.820312 369.652344 455.472656 370.125 457.449219 C 370.585938 459.382812 370.859375 461.351562 371.269531 463.296875 C 372.308594 468.207031 374.464844 473.003906 378.304688 476.355469 C 380.265625 478.070312 382.464844 479.429688 384.800781 480.574219 C 385.53125 480.929688 386.269531 481.265625 387.011719 481.59375 C 379.234375 485.714844 366.660156 481.675781 357.230469 471.507812 C 348.898438 462.519531 345.519531 451.449219 348.085938 443.855469 " fill-opacity="1" fill-rule="nonzero"/></g><g clip-path="url(#f70883ce6a)"><path fill="#ffffff" d="M 459.707031 711.34375 C 462.957031 709.011719 467.972656 707.214844 469.453125 711.234375 C 471.105469 715.753906 469.179688 721.710938 467.800781 726.019531 C 465.289062 733.882812 458.433594 746.566406 449.566406 744.128906 C 454.90625 734.164062 458.082031 722.761719 459.707031 711.34375 Z M 372.410156 775.324219 L 422.496094 775.324219 L 421.347656 770.570312 C 431.335938 766.40625 439.105469 759.769531 444.925781 751.585938 C 461.117188 759.527344 473.769531 737.59375 477.148438 723.414062 C 478.617188 717.226562 479.589844 707.707031 473.707031 703.488281 C 469.59375 700.546875 465.007812 700.132812 460.757812 701.410156 C 460.988281 698.035156 461.117188 694.671875 461.117188 691.402344 L 332.878906 691.402344 C 332.878906 721.617188 344.296875 758.621094 373.960938 771.019531 L 372.410156 775.324219 " fill-opacity="1" fill-rule="nonzero"/></g><g clip-path="url(#e29b6f3dc6)"><path fill="#ffffff" d="M 459.707031 711.34375 L 460.25 712.097656 C 461.125 711.472656 462.140625 710.882812 463.15625 710.460938 C 464.167969 710.035156 465.179688 709.78125 466.011719 709.785156 C 466.640625 709.785156 467.15625 709.917969 467.5625 710.179688 C 467.96875 710.445312 468.316406 710.847656 468.582031 711.554688 C 468.988281 712.664062 469.164062 713.902344 469.164062 715.214844 C 469.164062 716.945312 468.855469 718.800781 468.417969 720.605469 C 467.980469 722.414062 467.417969 724.171875 466.917969 725.738281 C 465.796875 729.25 463.765625 733.785156 461.109375 737.371094 C 459.78125 739.167969 458.296875 740.722656 456.726562 741.804688 C 455.152344 742.890625 453.511719 743.507812 451.792969 743.507812 C 451.148438 743.507812 450.492188 743.421875 449.8125 743.234375 L 449.566406 744.128906 L 450.386719 744.570312 C 455.789062 734.476562 458.988281 722.96875 460.628906 711.476562 L 459.707031 711.34375 L 460.25 712.097656 L 459.707031 711.34375 L 458.789062 711.210938 C 457.171875 722.546875 454.019531 733.851562 448.75 743.691406 C 448.613281 743.941406 448.601562 744.238281 448.714844 744.496094 C 448.824219 744.757812 449.050781 744.953125 449.320312 745.027344 C 450.15625 745.253906 450.984375 745.363281 451.792969 745.363281 C 453.96875 745.367188 455.984375 744.578125 457.78125 743.332031 C 460.480469 741.464844 462.742188 738.578125 464.578125 735.480469 C 466.410156 732.378906 467.804688 729.066406 468.6875 726.300781 C 469.1875 724.738281 469.765625 722.9375 470.222656 721.042969 C 470.679688 719.148438 471.019531 717.164062 471.019531 715.214844 C 471.019531 713.738281 470.828125 712.285156 470.324219 710.917969 L 470.324219 710.914062 C 469.953125 709.898438 469.339844 709.109375 468.566406 708.617188 C 467.792969 708.121094 466.902344 707.925781 466.011719 707.929688 C 464.828125 707.929688 463.609375 708.257812 462.441406 708.746094 C 461.269531 709.234375 460.148438 709.886719 459.167969 710.585938 C 458.960938 710.734375 458.824219 710.964844 458.789062 711.210938 Z M 372.410156 775.324219 L 372.410156 776.253906 L 422.496094 776.253906 C 422.777344 776.253906 423.046875 776.121094 423.222656 775.898438 C 423.398438 775.671875 423.464844 775.382812 423.398438 775.105469 L 422.25 770.351562 L 421.347656 770.570312 L 421.707031 771.425781 C 431.859375 767.195312 439.777344 760.433594 445.683594 752.125 L 444.925781 751.585938 L 444.519531 752.417969 C 447.003906 753.640625 449.445312 754.199219 451.792969 754.199219 C 455.21875 754.199219 458.414062 753.011719 461.28125 751.078125 C 465.585938 748.175781 469.203125 743.613281 472.046875 738.640625 C 474.890625 733.660156 476.945312 728.261719 478.050781 723.628906 C 478.664062 721.050781 479.195312 717.902344 479.195312 714.742188 C 479.195312 712.460938 478.917969 710.167969 478.164062 708.078125 C 477.410156 705.992188 476.160156 704.101562 474.246094 702.730469 C 471.414062 700.703125 468.324219 699.792969 465.28125 699.796875 C 463.65625 699.796875 462.046875 700.050781 460.488281 700.519531 L 460.757812 701.410156 L 461.683594 701.472656 C 461.917969 698.078125 462.046875 694.691406 462.046875 691.402344 C 462.046875 691.160156 461.945312 690.917969 461.773438 690.746094 C 461.597656 690.574219 461.359375 690.472656 461.117188 690.472656 L 332.878906 690.472656 C 332.632812 690.472656 332.394531 690.574219 332.222656 690.746094 C 332.050781 690.917969 331.949219 691.160156 331.949219 691.402344 C 331.953125 706.625 334.820312 723.542969 341.449219 738.273438 C 344.765625 745.636719 349.023438 752.457031 354.34375 758.226562 C 359.664062 763.996094 366.054688 768.722656 373.601562 771.875 L 373.960938 771.019531 L 373.085938 770.703125 L 371.535156 775.007812 C 371.429688 775.289062 371.472656 775.609375 371.648438 775.855469 C 371.820312 776.101562 372.105469 776.253906 372.410156 776.253906 L 372.410156 775.324219 L 373.28125 775.636719 L 374.835938 771.332031 C 375.003906 770.867188 374.777344 770.351562 374.320312 770.160156 C 367.035156 767.117188 360.875 762.566406 355.710938 756.96875 C 347.964844 748.570312 342.484375 737.8125 338.941406 726.328125 C 335.402344 714.847656 333.808594 702.644531 333.808594 691.402344 L 332.878906 691.402344 L 332.878906 692.332031 L 461.117188 692.332031 L 461.117188 691.402344 L 460.1875 691.402344 C 460.1875 694.644531 460.0625 697.988281 459.828125 701.34375 C 459.808594 701.648438 459.9375 701.945312 460.175781 702.136719 C 460.414062 702.324219 460.734375 702.386719 461.023438 702.300781 C 462.421875 701.878906 463.851562 701.652344 465.28125 701.652344 C 467.960938 701.65625 470.632812 702.433594 473.167969 704.242188 L 473.164062 704.242188 C 474.730469 705.363281 475.757812 706.894531 476.417969 708.710938 C 477.074219 710.523438 477.339844 712.609375 477.335938 714.742188 C 477.339844 717.695312 476.835938 720.71875 476.246094 723.199219 C 474.835938 729.125 471.734375 736.511719 467.449219 742.332031 C 465.3125 745.242188 462.878906 747.761719 460.242188 749.535156 C 457.605469 751.3125 454.785156 752.339844 451.792969 752.34375 C 449.742188 752.339844 447.59375 751.859375 445.335938 750.753906 C 444.929688 750.550781 444.4375 750.679688 444.171875 751.046875 C 438.4375 759.105469 430.8125 765.617188 420.992188 769.710938 C 420.566406 769.886719 420.335938 770.34375 420.445312 770.785156 L 421.316406 774.394531 L 372.410156 774.394531 L 372.410156 775.324219 L 373.28125 775.636719 L 372.410156 775.324219 " fill-opacity="1" fill-rule="nonzero"/></g></svg>