<svg xmlns="http://www.w3.org/2000/svg" xmlns:xlink="http://www.w3.org/1999/xlink" width="1080" zoomAndPan="magnify" viewBox="0 0 810 809.999993" height="1080" preserveAspectRatio="xMidYMid meet" version="1.0"><defs><g/><clipPath id="0fb10285d1"><path d="M 20.816406 6.65625 L 230.316406 6.65625 L 230.316406 565 L 20.816406 565 Z M 20.816406 6.65625 " clip-rule="nonzero"/></clipPath><clipPath id="e4c564ac1c"><path d="M 45 643 L 206 643 L 206 803.34375 L 45 803.34375 Z M 45 643 " clip-rule="nonzero"/></clipPath><clipPath id="e1f88e03a7"><path d="M 34.660156 126.242188 L 119 126.242188 L 119 211.03125 L 34.660156 211.03125 Z M 34.660156 126.242188 " clip-rule="nonzero"/></clipPath><clipPath id="eab9832607"><path d="M 68 6.65625 L 103 6.65625 L 103 98 L 68 98 Z M 68 6.65625 " clip-rule="nonzero"/></clipPath><clipPath id="e2abca4b0c"><path d="M 145 71.535156 L 216.992188 71.535156 L 216.992188 148 L 145 148 Z M 145 71.535156 " clip-rule="nonzero"/></clipPath><clipPath id="1804f0fce4"><path d="M 49.925781 318.21875 L 119.710938 318.21875 L 119.710938 388.203125 L 49.925781 388.203125 Z M 49.925781 318.21875 " clip-rule="nonzero"/></clipPath><clipPath id="0a164df3ba"><path d="M 78 219.507812 L 107 219.507812 L 107 295 L 78 295 Z M 78 219.507812 " clip-rule="nonzero"/></clipPath><clipPath id="2ad2b91f08"><path d="M 141 273.0625 L 200.226562 273.0625 L 200.226562 336.503906 L 141 336.503906 Z M 141 273.0625 " clip-rule="nonzero"/></clipPath><clipPath id="ebc151a717"><path d="M 122.171875 471.152344 L 168.582031 471.152344 L 168.582031 518.054688 L 122.171875 518.054688 Z M 122.171875 471.152344 " clip-rule="nonzero"/></clipPath><clipPath id="d690c21d98"><path d="M 68.433594 441 L 107.917969 441 L 107.917969 483.410156 L 68.433594 483.410156 Z M 68.433594 441 " clip-rule="nonzero"/></clipPath><clipPath id="932a0d8dfe"><path d="M 52.769531 690.425781 L 200.304688 690.425781 L 200.304688 776.179688 L 52.769531 776.179688 Z M 52.769531 690.425781 " clip-rule="nonzero"/></clipPath></defs><g clip-path="url(#0fb10285d1)"><path fill="#f67828" d="M 125.425781 6.65625 C 62.265625 6.65625 13.320312 62.320312 21.808594 125.054688 L 80.441406 524.816406 C 83.414062 547.378906 102.722656 564.351562 125.566406 564.351562 C 148.34375 564.351562 167.652344 547.378906 170.761719 524.816406 L 229.398438 125.054688 C 237.53125 62.320312 188.65625 6.65625 125.425781 6.65625 " fill-opacity="1" fill-rule="nonzero"/></g><g clip-path="url(#e4c564ac1c)"><path fill="#f67828" d="M 125.425781 643.992188 C 81.363281 643.992188 45.785156 679.640625 45.785156 723.703125 C 45.785156 767.699219 81.363281 803.34375 125.425781 803.34375 C 169.488281 803.34375 205.066406 767.699219 205.066406 723.703125 C 205.066406 679.640625 169.488281 643.992188 125.425781 643.992188 " fill-opacity="1" fill-rule="nonzero"/></g><g clip-path="url(#e1f88e03a7)"><path fill="#ffffff" d="M 107.761719 181.632812 C 100.945312 175.171875 92.132812 172.636719 83.199219 170.679688 C 75.636719 169.019531 68.304688 166.777344 62.015625 162.09375 C 50.398438 153.445312 43.921875 140.121094 40.085938 126.382812 C 28.785156 141.230469 35.582031 168.539062 56.367188 189.328125 C 74.769531 207.726562 98.28125 215.164062 113.734375 208.789062 C 118.074219 207 119.988281 201.90625 118.113281 197.601562 C 115.570312 191.765625 112.566406 186.1875 107.761719 181.632812 " fill-opacity="1" fill-rule="nonzero"/></g><path fill="#ffffff" d="M 55.570312 115.011719 C 51.078125 116.34375 48.691406 121.238281 50.121094 125.703125 C 52.144531 132.027344 54.828125 138.117188 58.558594 143.667969 C 59.046875 144.390625 59.554688 145.105469 60.078125 145.804688 C 60.164062 145.914062 60.550781 146.421875 60.636719 146.527344 C 60.875 146.824219 61.117188 147.121094 61.363281 147.414062 C 62.375 148.617188 63.445312 149.765625 64.574219 150.859375 C 65.628906 151.878906 66.742188 152.816406 67.882812 153.738281 C 67.886719 153.742188 67.886719 153.742188 67.890625 153.746094 C 67.992188 153.820312 68.09375 153.898438 68.199219 153.972656 C 68.464844 154.167969 68.738281 154.363281 69.011719 154.554688 C 69.480469 154.882812 69.957031 155.199219 70.441406 155.503906 C 73.953125 157.734375 77.214844 159.089844 81.140625 160.1875 C 84.976562 161.261719 88.90625 161.953125 92.765625 162.921875 C 102.523438 165.375 111.96875 170.054688 118.394531 177.996094 C 121.679688 182.058594 124.242188 186.566406 126.355469 191.335938 C 127.011719 192.820312 127.628906 194.328125 128.234375 195.839844 C 137.078125 180.570312 129.9375 155.078125 110.277344 135.417969 C 92.902344 118.046875 70.976562 110.445312 55.570312 115.011719 " fill-opacity="1" fill-rule="nonzero"/><g clip-path="url(#eab9832607)"><path fill="#ffffff" d="M 102.917969 77.945312 C 102.714844 70.269531 99.085938 63.710938 95.054688 57.414062 C 91.640625 52.082031 88.699219 46.546875 87.769531 40.203125 C 86.054688 28.488281 90.011719 17.039062 95.738281 6.882812 C 80.621094 8.933594 68.761719 28.648438 68.761719 52.683594 C 68.761719 73.957031 78.054688 91.851562 90.675781 97.097656 C 94.21875 98.570312 98.269531 96.730469 99.671875 93.160156 C 101.578125 88.316406 103.066406 83.355469 102.917969 77.945312 " fill-opacity="1" fill-rule="nonzero"/></g><path fill="#ffffff" d="M 111.261719 9.261719 C 107.894531 7.433594 103.6875 8.882812 101.933594 12.289062 C 99.445312 17.117188 97.476562 22.1875 96.421875 27.554688 C 96.285156 28.253906 96.167969 28.960938 96.066406 29.667969 C 96.054688 29.777344 95.984375 30.296875 95.972656 30.40625 C 95.9375 30.71875 95.90625 31.027344 95.878906 31.339844 C 95.769531 32.617188 95.722656 33.90625 95.742188 35.1875 C 95.765625 36.386719 95.867188 37.574219 95.992188 38.765625 C 95.992188 38.769531 95.992188 38.769531 95.992188 38.773438 C 96.007812 38.878906 96.023438 38.980469 96.039062 39.085938 C 96.078125 39.351562 96.125 39.621094 96.171875 39.890625 C 96.253906 40.347656 96.347656 40.808594 96.449219 41.265625 C 97.195312 44.585938 98.292969 47.253906 99.929688 50.160156 C 101.527344 52.996094 103.398438 55.667969 105.070312 58.460938 C 109.292969 65.519531 112.046875 73.683594 111.167969 81.992188 C 110.71875 86.238281 109.59375 90.324219 108.0625 94.300781 C 107.582031 95.542969 107.066406 96.769531 106.542969 97.996094 C 120.480469 94.277344 131.089844 75.414062 131.089844 52.683594 C 131.089844 32.597656 122.804688 15.527344 111.261719 9.261719 " fill-opacity="1" fill-rule="nonzero"/><path fill="#ffffff" d="M 157.203125 126.183594 C 162.796875 119.820312 164.78125 111.792969 166.242188 103.679688 C 167.480469 96.804688 169.253906 90.121094 173.257812 84.292969 C 180.660156 73.53125 192.449219 67.238281 204.699219 63.316406 C 190.933594 53.636719 166.554688 60.6875 148.527344 80.128906 C 132.566406 97.335938 126.664062 118.777344 132.933594 132.488281 C 134.695312 136.335938 139.351562 137.886719 143.164062 136.054688 C 148.335938 133.5625 153.261719 130.667969 157.203125 126.183594 " fill-opacity="1" fill-rule="nonzero"/><g clip-path="url(#e2abca4b0c)"><path fill="#ffffff" d="M 215.46875 76.886719 C 214.117188 72.882812 209.628906 70.898438 205.652344 72.335938 C 200.019531 74.378906 194.621094 77.003906 189.75 80.550781 C 189.109375 81.015625 188.488281 81.5 187.871094 81.992188 C 187.777344 82.074219 187.332031 82.441406 187.242188 82.519531 C 186.984375 82.746094 186.722656 82.976562 186.46875 83.207031 C 185.417969 84.160156 184.417969 85.164062 183.472656 86.21875 C 182.589844 87.203125 181.78125 88.238281 180.988281 89.296875 C 180.988281 89.300781 180.988281 89.300781 180.984375 89.304688 C 180.917969 89.398438 180.851562 89.492188 180.785156 89.589844 C 180.617188 89.839844 180.453125 90.085938 180.292969 90.339844 C 180.011719 90.777344 179.746094 91.214844 179.484375 91.660156 C 177.59375 94.90625 176.484375 97.886719 175.628906 101.464844 C 174.789062 104.957031 174.300781 108.523438 173.558594 112.035156 C 171.679688 120.910156 167.78125 129.582031 160.84375 135.644531 C 157.292969 138.742188 153.316406 141.203125 149.09375 143.265625 C 147.773438 143.914062 146.4375 144.519531 145.097656 145.113281 C 159.15625 152.566406 181.890625 145.261719 198.9375 126.878906 C 214.003906 110.632812 220.109375 90.613281 215.46875 76.886719 " fill-opacity="1" fill-rule="nonzero"/></g><g clip-path="url(#1804f0fce4)"><path fill="#ffffff" d="M 110.261719 363.9375 C 104.636719 358.601562 97.363281 356.507812 89.988281 354.894531 C 83.75 353.523438 77.695312 351.671875 72.503906 347.808594 C 62.917969 340.667969 57.570312 329.671875 54.402344 318.332031 C 45.078125 330.585938 50.683594 353.128906 67.84375 370.285156 C 83.03125 385.472656 102.4375 391.609375 115.191406 386.347656 C 118.773438 384.871094 120.351562 380.667969 118.804688 377.117188 C 116.707031 372.300781 114.226562 367.695312 110.261719 363.9375 " fill-opacity="1" fill-rule="nonzero"/></g><path fill="#ffffff" d="M 67.183594 308.949219 C 63.476562 310.046875 61.507812 314.085938 62.6875 317.769531 C 64.355469 322.992188 66.570312 328.019531 69.648438 332.597656 C 70.050781 333.199219 70.472656 333.785156 70.902344 334.363281 C 70.976562 334.453125 71.296875 334.875 71.363281 334.960938 C 71.5625 335.207031 71.761719 335.449219 71.964844 335.691406 C 72.800781 336.683594 73.683594 337.632812 74.617188 338.535156 C 75.488281 339.375 76.40625 340.148438 77.347656 340.910156 C 77.351562 340.914062 77.351562 340.914062 77.351562 340.917969 C 77.4375 340.980469 77.523438 341.042969 77.605469 341.105469 C 77.828125 341.269531 78.050781 341.429688 78.277344 341.585938 C 78.664062 341.855469 79.058594 342.117188 79.457031 342.371094 C 82.359375 344.210938 85.050781 345.328125 88.289062 346.234375 C 91.457031 347.121094 94.699219 347.691406 97.886719 348.492188 C 105.9375 350.515625 113.734375 354.378906 119.039062 360.933594 C 121.75 364.285156 123.863281 368.007812 125.609375 371.941406 C 126.152344 373.171875 126.660156 374.414062 127.160156 375.660156 C 134.457031 363.058594 128.566406 342.015625 112.335938 325.789062 C 98 311.453125 79.898438 305.179688 67.183594 308.949219 " fill-opacity="1" fill-rule="nonzero"/><g clip-path="url(#0a164df3ba)"><path fill="#ffffff" d="M 106.265625 278.355469 C 106.097656 272.019531 103.101562 266.605469 99.773438 261.40625 C 96.957031 257.007812 94.527344 252.4375 93.761719 247.203125 C 92.347656 237.535156 95.613281 228.082031 100.335938 219.699219 C 87.859375 221.394531 78.074219 237.664062 78.074219 257.503906 C 78.074219 275.0625 85.742188 289.832031 96.160156 294.160156 C 99.085938 295.378906 102.425781 293.859375 103.585938 290.914062 C 105.15625 286.914062 106.386719 282.820312 106.265625 278.355469 " fill-opacity="1" fill-rule="nonzero"/></g><path fill="#ffffff" d="M 113.152344 221.664062 C 110.371094 220.15625 106.898438 221.351562 105.449219 224.164062 C 103.398438 228.148438 101.769531 232.332031 100.902344 236.761719 C 100.789062 237.339844 100.695312 237.921875 100.609375 238.507812 C 100.597656 238.597656 100.542969 239.027344 100.53125 239.117188 C 100.503906 239.371094 100.476562 239.628906 100.457031 239.886719 C 100.363281 240.941406 100.324219 242.003906 100.34375 243.0625 C 100.359375 244.054688 100.445312 245.03125 100.546875 246.015625 C 100.546875 246.019531 100.546875 246.019531 100.546875 246.023438 C 100.5625 246.109375 100.574219 246.195312 100.585938 246.28125 C 100.621094 246.5 100.65625 246.722656 100.695312 246.945312 C 100.765625 247.324219 100.839844 247.703125 100.925781 248.078125 C 101.539062 250.820312 102.449219 253.023438 103.796875 255.417969 C 105.117188 257.761719 106.660156 259.964844 108.039062 262.269531 C 111.523438 268.097656 113.796875 274.835938 113.074219 281.695312 C 112.703125 285.199219 111.773438 288.574219 110.507812 291.855469 C 110.113281 292.878906 109.6875 293.890625 109.253906 294.902344 C 120.761719 291.835938 129.515625 276.261719 129.515625 257.503906 C 129.515625 240.921875 122.679688 226.835938 113.152344 221.664062 " fill-opacity="1" fill-rule="nonzero"/><path fill="#ffffff" d="M 151.070312 318.167969 C 155.6875 312.917969 157.324219 306.292969 158.53125 299.59375 C 159.554688 293.921875 161.015625 288.402344 164.324219 283.59375 C 170.429688 274.710938 180.160156 269.515625 190.273438 266.28125 C 178.910156 258.292969 158.789062 264.109375 143.910156 280.15625 C 130.738281 294.359375 125.863281 312.058594 131.039062 323.371094 C 132.492188 326.550781 136.335938 327.828125 139.484375 326.316406 C 143.753906 324.257812 147.816406 321.867188 151.070312 318.167969 " fill-opacity="1" fill-rule="nonzero"/><g clip-path="url(#2ad2b91f08)"><path fill="#ffffff" d="M 199.164062 277.480469 C 198.042969 274.175781 194.339844 272.539062 191.058594 273.726562 C 186.410156 275.410156 181.957031 277.574219 177.933594 280.503906 C 177.40625 280.890625 176.890625 281.285156 176.382812 281.695312 C 176.304688 281.761719 175.9375 282.066406 175.863281 282.132812 C 175.648438 282.316406 175.4375 282.503906 175.226562 282.695312 C 174.359375 283.480469 173.53125 284.3125 172.75 285.183594 C 172.023438 285.996094 171.359375 286.851562 170.703125 287.722656 C 170.699219 287.726562 170.699219 287.726562 170.699219 287.730469 C 170.644531 287.808594 170.589844 287.886719 170.535156 287.964844 C 170.398438 288.171875 170.261719 288.375 170.128906 288.585938 C 169.898438 288.945312 169.675781 289.308594 169.460938 289.675781 C 167.898438 292.351562 166.984375 294.816406 166.277344 297.765625 C 165.585938 300.648438 165.183594 303.589844 164.570312 306.488281 C 163.019531 313.816406 159.800781 320.972656 154.074219 325.976562 C 151.144531 328.535156 147.863281 330.566406 144.375 332.269531 C 143.289062 332.800781 142.183594 333.304688 141.078125 333.792969 C 152.683594 339.941406 171.445312 333.917969 185.519531 318.742188 C 197.953125 305.332031 202.992188 288.808594 199.164062 277.480469 " fill-opacity="1" fill-rule="nonzero"/></g><g clip-path="url(#ebc151a717)"><path fill="#ffffff" d="M 128.503906 501.792969 C 132.277344 498.21875 137.148438 496.816406 142.089844 495.734375 C 146.273438 494.816406 150.332031 493.574219 153.808594 490.984375 C 160.234375 486.199219 163.820312 478.828125 165.941406 471.230469 C 172.191406 479.441406 168.433594 494.550781 156.933594 506.050781 C 146.753906 516.226562 133.75 520.339844 125.199219 516.8125 C 122.800781 515.824219 121.742188 513.007812 122.78125 510.625 C 124.183594 507.398438 125.847656 504.3125 128.503906 501.792969 " fill-opacity="1" fill-rule="nonzero"/></g><path fill="#ffffff" d="M 157.375 464.941406 C 159.859375 465.675781 161.179688 468.382812 160.390625 470.851562 C 159.269531 474.351562 157.785156 477.722656 155.722656 480.792969 C 155.453125 481.191406 155.171875 481.585938 154.882812 481.972656 C 154.835938 482.035156 154.621094 482.316406 154.574219 482.371094 C 154.441406 482.539062 154.308594 482.699219 154.171875 482.863281 C 153.613281 483.527344 153.019531 484.164062 152.394531 484.769531 C 151.8125 485.332031 151.195312 485.851562 150.566406 486.363281 C 150.5625 486.363281 150.5625 486.363281 150.5625 486.367188 C 150.503906 486.410156 150.449219 486.449219 150.390625 486.492188 C 150.242188 486.601562 150.09375 486.707031 149.941406 486.8125 C 149.683594 486.996094 149.417969 487.167969 149.148438 487.339844 C 147.207031 488.574219 145.402344 489.320312 143.230469 489.929688 C 141.109375 490.523438 138.9375 490.90625 136.800781 491.441406 C 131.402344 492.800781 126.175781 495.386719 122.621094 499.78125 C 120.804688 502.027344 119.386719 504.523438 118.21875 507.160156 C 117.855469 507.984375 117.515625 508.816406 117.179688 509.652344 C 112.289062 501.207031 116.238281 487.101562 127.113281 476.226562 C 136.722656 466.617188 148.855469 462.414062 157.375 464.941406 " fill-opacity="1" fill-rule="nonzero"/><path fill="#ffffff" d="M 131.183594 444.433594 C 131.296875 440.191406 133.304688 436.5625 135.535156 433.078125 C 137.421875 430.128906 139.050781 427.066406 139.5625 423.558594 C 140.511719 417.078125 138.324219 410.742188 135.15625 405.125 C 143.519531 406.261719 150.078125 417.164062 150.078125 430.460938 C 150.078125 442.230469 144.9375 452.128906 137.957031 455.03125 C 135.996094 455.84375 133.753906 454.828125 132.980469 452.851562 C 131.925781 450.171875 131.101562 447.429688 131.183594 444.433594 " fill-opacity="1" fill-rule="nonzero"/><path fill="#ffffff" d="M 126.566406 406.441406 C 128.433594 405.429688 130.757812 406.230469 131.730469 408.117188 C 133.105469 410.789062 134.195312 413.59375 134.777344 416.558594 C 134.851562 416.949219 134.917969 417.339844 134.976562 417.730469 C 134.980469 417.792969 135.019531 418.078125 135.027344 418.136719 C 135.046875 418.308594 135.0625 418.480469 135.078125 418.65625 C 135.136719 419.363281 135.164062 420.074219 135.152344 420.785156 C 135.140625 421.445312 135.085938 422.105469 135.015625 422.761719 C 135.015625 422.765625 135.015625 422.765625 135.015625 422.765625 C 135.007812 422.824219 135 422.882812 134.988281 422.9375 C 134.96875 423.085938 134.941406 423.234375 134.914062 423.382812 C 134.871094 423.636719 134.820312 423.890625 134.761719 424.144531 C 134.351562 425.980469 133.742188 427.457031 132.835938 429.066406 C 131.953125 430.632812 130.917969 432.113281 129.996094 433.65625 C 127.660156 437.5625 126.136719 442.078125 126.621094 446.671875 C 126.867188 449.023438 127.492188 451.285156 128.339844 453.484375 C 128.605469 454.171875 128.890625 454.847656 129.179688 455.527344 C 121.46875 453.46875 115.601562 443.035156 115.601562 430.460938 C 115.601562 419.347656 120.183594 409.90625 126.566406 406.441406 " fill-opacity="1" fill-rule="nonzero"/><path fill="#ffffff" d="M 101.15625 471.117188 C 98.0625 467.601562 96.960938 463.160156 96.15625 458.671875 C 95.46875 454.867188 94.488281 451.167969 92.273438 447.945312 C 88.179688 441.992188 81.65625 438.511719 74.882812 436.34375 C 82.496094 430.988281 95.984375 434.890625 105.953125 445.644531 C 114.78125 455.160156 118.046875 467.023438 114.578125 474.609375 C 113.605469 476.738281 111.03125 477.59375 108.921875 476.578125 C 106.058594 475.203125 103.335938 473.597656 101.15625 471.117188 " fill-opacity="1" fill-rule="nonzero"/><g clip-path="url(#d690c21d98)"><path fill="#ffffff" d="M 68.921875 443.851562 C 69.671875 441.636719 72.15625 440.539062 74.355469 441.332031 C 77.46875 442.460938 80.457031 443.914062 83.152344 445.878906 C 83.503906 446.132812 83.847656 446.402344 84.191406 446.675781 C 84.242188 446.71875 84.488281 446.921875 84.539062 446.96875 C 84.683594 447.09375 84.824219 447.21875 84.964844 447.347656 C 85.546875 447.871094 86.101562 448.429688 86.625 449.011719 C 87.113281 449.558594 87.558594 450.128906 87.996094 450.714844 C 88 450.714844 88 450.714844 88 450.71875 C 88.035156 450.769531 88.074219 450.824219 88.109375 450.875 C 88.203125 451.015625 88.292969 451.152344 88.382812 451.292969 C 88.535156 451.535156 88.6875 451.777344 88.832031 452.023438 C 89.875 453.816406 90.488281 455.46875 90.964844 457.445312 C 91.425781 459.378906 91.695312 461.351562 92.109375 463.292969 C 93.148438 468.203125 95.304688 473 99.140625 476.351562 C 101.105469 478.066406 103.304688 479.429688 105.640625 480.570312 C 106.371094 480.925781 107.109375 481.261719 107.851562 481.59375 C 100.074219 485.714844 87.5 481.675781 78.066406 471.503906 C 69.734375 462.515625 66.359375 451.445312 68.921875 443.851562 " fill-opacity="1" fill-rule="nonzero"/></g><path fill="#ffffff" d="M 180.550781 711.34375 C 183.804688 709.011719 188.816406 707.214844 190.300781 711.234375 C 191.953125 715.753906 190.027344 721.710938 188.644531 726.019531 C 186.136719 733.882812 179.277344 746.566406 170.410156 744.128906 C 175.75 734.164062 178.925781 722.757812 180.550781 711.34375 Z M 93.25 775.324219 L 143.335938 775.324219 L 142.191406 770.570312 C 152.179688 766.40625 159.949219 759.769531 165.769531 751.585938 C 181.960938 759.53125 194.613281 737.59375 197.996094 723.414062 C 199.460938 717.226562 200.4375 707.703125 194.550781 703.484375 C 190.441406 700.542969 185.855469 700.128906 181.601562 701.40625 C 181.835938 698.03125 181.960938 694.667969 181.960938 691.398438 L 53.714844 691.398438 C 53.714844 721.617188 65.132812 758.621094 94.800781 771.019531 L 93.25 775.324219 " fill-opacity="1" fill-rule="nonzero"/><g clip-path="url(#932a0d8dfe)"><path fill="#ffffff" d="M 180.550781 711.34375 L 181.09375 712.097656 C 181.96875 711.46875 182.988281 710.878906 184 710.457031 C 185.015625 710.03125 186.023438 709.78125 186.855469 709.785156 C 187.488281 709.785156 188 709.917969 188.410156 710.179688 C 188.816406 710.445312 189.164062 710.84375 189.425781 711.554688 C 189.835938 712.664062 190.007812 713.902344 190.007812 715.214844 C 190.007812 716.945312 189.703125 718.800781 189.265625 720.605469 C 188.828125 722.414062 188.261719 724.171875 187.761719 725.738281 C 186.644531 729.246094 184.609375 733.785156 181.953125 737.371094 C 180.625 739.167969 179.144531 740.722656 177.570312 741.804688 C 175.996094 742.890625 174.355469 743.507812 172.636719 743.507812 C 171.996094 743.507812 171.335938 743.421875 170.65625 743.234375 L 170.410156 744.128906 L 171.230469 744.570312 C 176.632812 734.476562 179.832031 722.96875 181.472656 711.472656 L 180.550781 711.34375 L 181.09375 712.097656 L 180.550781 711.34375 L 179.632812 711.210938 C 178.015625 722.546875 174.863281 733.847656 169.59375 743.691406 C 169.457031 743.941406 169.445312 744.238281 169.558594 744.496094 C 169.667969 744.757812 169.894531 744.953125 170.167969 745.027344 C 171 745.253906 171.828125 745.363281 172.636719 745.363281 C 174.8125 745.367188 176.828125 744.578125 178.625 743.332031 C 181.324219 741.464844 183.589844 738.578125 185.421875 735.480469 C 187.253906 732.378906 188.648438 729.0625 189.53125 726.300781 C 190.03125 724.738281 190.613281 722.9375 191.070312 721.042969 C 191.527344 719.148438 191.867188 717.164062 191.867188 715.214844 C 191.867188 713.738281 191.671875 712.28125 191.171875 710.914062 C 190.800781 709.894531 190.1875 709.109375 189.410156 708.617188 C 188.636719 708.121094 187.746094 707.925781 186.855469 707.925781 C 185.671875 707.929688 184.457031 708.257812 183.285156 708.742188 C 182.117188 709.230469 180.992188 709.882812 180.011719 710.585938 C 179.808594 710.734375 179.667969 710.960938 179.632812 711.210938 Z M 93.25 775.324219 L 93.25 776.253906 L 143.335938 776.253906 C 143.621094 776.253906 143.890625 776.125 144.066406 775.898438 C 144.242188 775.675781 144.308594 775.382812 144.238281 775.105469 L 143.09375 770.351562 L 142.191406 770.570312 L 142.546875 771.425781 C 152.703125 767.195312 160.621094 760.433594 166.527344 752.125 L 165.769531 751.585938 L 165.363281 752.417969 C 167.847656 753.640625 170.289062 754.199219 172.636719 754.199219 C 176.0625 754.199219 179.257812 753.011719 182.125 751.078125 C 186.429688 748.175781 190.046875 743.613281 192.890625 738.640625 C 195.734375 733.660156 197.792969 728.261719 198.898438 723.628906 C 199.507812 721.046875 200.039062 717.902344 200.039062 714.742188 C 200.039062 712.457031 199.761719 710.164062 199.011719 708.074219 C 198.257812 705.988281 197.007812 704.097656 195.09375 702.726562 L 195.089844 702.726562 C 192.257812 700.699219 189.167969 699.792969 186.125 699.792969 C 184.503906 699.792969 182.890625 700.050781 181.332031 700.515625 L 181.601562 701.40625 L 182.527344 701.472656 C 182.761719 698.074219 182.890625 694.6875 182.890625 691.398438 C 182.890625 691.15625 182.789062 690.917969 182.617188 690.742188 C 182.445312 690.570312 182.203125 690.46875 181.960938 690.46875 L 53.714844 690.46875 C 53.472656 690.46875 53.230469 690.570312 53.058594 690.742188 C 52.886719 690.917969 52.789062 691.15625 52.789062 691.398438 C 52.789062 706.625 55.65625 723.539062 62.285156 738.273438 C 65.601562 745.636719 69.863281 752.457031 75.183594 758.226562 C 80.503906 763.996094 86.890625 768.722656 94.441406 771.878906 L 94.800781 771.019531 L 93.925781 770.707031 L 92.375 775.011719 C 92.269531 775.292969 92.3125 775.613281 92.484375 775.859375 C 92.660156 776.105469 92.945312 776.253906 93.25 776.253906 L 93.25 775.324219 L 94.121094 775.640625 L 95.675781 771.335938 C 95.84375 770.867188 95.617188 770.355469 95.15625 770.164062 C 87.875 767.121094 81.710938 762.566406 76.550781 756.96875 C 68.804688 748.574219 63.320312 737.8125 59.78125 726.328125 C 56.238281 714.84375 54.644531 702.644531 54.644531 691.398438 L 53.714844 691.398438 L 53.714844 692.328125 L 181.960938 692.328125 L 181.960938 691.398438 L 181.03125 691.398438 C 181.03125 694.640625 180.90625 697.988281 180.675781 701.34375 C 180.652344 701.644531 180.78125 701.941406 181.019531 702.132812 C 181.257812 702.320312 181.578125 702.382812 181.867188 702.296875 C 183.269531 701.875 184.695312 701.652344 186.125 701.652344 C 188.804688 701.652344 191.480469 702.429688 194.011719 704.238281 L 194.007812 704.238281 C 195.574219 705.363281 196.601562 706.894531 197.265625 708.707031 C 197.921875 710.519531 198.183594 712.609375 198.183594 714.742188 C 198.183594 717.691406 197.679688 720.71875 197.089844 723.199219 C 195.683594 729.125 192.582031 736.511719 188.296875 742.332031 C 186.15625 745.242188 183.722656 747.761719 181.085938 749.539062 C 178.449219 751.3125 175.628906 752.339844 172.636719 752.34375 C 170.585938 752.339844 168.4375 751.859375 166.179688 750.753906 C 165.773438 750.550781 165.28125 750.679688 165.015625 751.046875 C 159.28125 759.105469 151.652344 765.617188 141.832031 769.714844 C 141.410156 769.890625 141.179688 770.34375 141.289062 770.789062 L 142.15625 774.394531 L 93.25 774.394531 L 93.25 775.324219 L 94.121094 775.640625 L 93.25 775.324219 " fill-opacity="1" fill-rule="nonzero"/></g><g fill="#f67828" fill-opacity="1"><g transform="translate(649.313107, 474.804741)"><g><path d="M 133.015625 -92.84375 C 133.015625 -77.414062 122.90625 -68.902344 111.464844 -63.582031 C 102.421875 -59.324219 86.992188 -55.601562 85.925781 -43.363281 C 84.863281 -31.390625 107.210938 -24.476562 130.355469 -40.96875 L 133.015625 -38.839844 C 122.640625 -13.832031 96.035156 0 69.167969 0 C 31.125 0 0 -27.667969 0 -66.507812 C 0 -106.945312 32.191406 -133.015625 71.5625 -133.015625 C 94.441406 -133.015625 133.015625 -122.90625 133.015625 -92.84375 Z M 112.796875 -187.550781 L 81.140625 -187.550781 L 71.828125 -147.644531 L 76.351562 -147.644531 Z M 54.003906 -119.980469 C 38.308594 -105.878906 34.050781 -81.140625 41.234375 -61.453125 C 48.683594 -40.96875 68.371094 -30.0625 89.386719 -29.261719 C 69.699219 -40.96875 71.03125 -60.121094 81.9375 -77.679688 C 85.925781 -83.800781 90.183594 -89.386719 92.046875 -96.570312 C 99.496094 -123.96875 75.550781 -138.867188 54.003906 -119.980469 Z M 54.003906 -119.980469 "/></g></g></g><g fill="#f67828" fill-opacity="1"><g transform="translate(234.386094, 485.464846)"><g><path d="M 215.402344 -175.488281 C 215.402344 -235.179688 157.148438 -251.722656 119.746094 -251.722656 C 56.457031 -251.722656 0 -202.457031 0 -125.859375 C 0 -52.140625 50.703125 0 112.195312 0 C 155.707031 0 199.21875 -25.890625 215.402344 -73.71875 L 211.445312 -77.316406 C 194.546875 -54.300781 167.933594 -43.152344 142.402344 -43.511719 C 88.101562 -44.949219 57.894531 -96.375 60.414062 -156.425781 C 62.570312 -189.871094 74.078125 -222.234375 97.8125 -237.699219 C 124.78125 -254.957031 161.820312 -245.25 162.539062 -201.019531 C 162.898438 -179.441406 149.953125 -160.742188 127.660156 -161.101562 C 130.535156 -137.726562 146.359375 -124.78125 169.011719 -125.859375 C 193.105469 -126.222656 215.402344 -143.839844 215.402344 -175.488281 Z M 215.402344 -175.488281 "/></g></g></g><g fill="#f67828" fill-opacity="1"><g transform="translate(441.479765, 459.780893)"><g><path d="M 106.675781 0 L 146.582031 0 L 146.582031 -4.523438 C 139.398438 -4.523438 133.015625 -7.714844 133.015625 -21.28125 L 133.015625 -93.640625 C 133.015625 -126.097656 92.3125 -133.015625 67.304688 -133.015625 C 48.152344 -133.015625 0 -130.355469 0 -104.285156 C 0 -92.046875 11.4375 -86.726562 22.347656 -86.460938 C 30.859375 -86.195312 43.628906 -89.652344 48.417969 -97.367188 C 32.457031 -105.613281 35.648438 -127.160156 62.78125 -128.492188 C 79.277344 -129.289062 91.78125 -118.382812 77.148438 -103.484375 C 55.066406 -81.40625 0.265625 -75.285156 0 -34.582031 C 0 -15.960938 14.367188 0 41.765625 0 C 61.453125 0 80.605469 -8.246094 93.109375 -23.144531 L 93.109375 -16.761719 C 93.109375 -3.457031 99.496094 0 106.675781 0 Z M 87.789062 -114.125 C 91.515625 -107.742188 93.109375 -98.960938 93.109375 -87.789062 L 93.109375 -45.492188 C 93.109375 -27.933594 82.203125 -11.171875 63.050781 -11.4375 C 50.011719 -11.4375 39.636719 -22.613281 40.171875 -39.371094 C 40.703125 -63.050781 55.066406 -72.890625 71.5625 -87.789062 C 78.746094 -94.441406 87.789062 -104.285156 87.789062 -114.125 Z M 87.789062 -114.125 "/></g></g></g><g fill="#f67828" fill-opacity="1"><g transform="translate(584.878678, 489.996767)"><g><path d="M 0 0 L 66.773438 0 L 66.773438 -4.523438 C 59.589844 -4.523438 53.472656 -7.714844 53.472656 -21.28125 L 53.472656 -128.492188 L 66.773438 -128.492188 L 66.773438 -133.015625 L 57.996094 -133.015625 C 40.171875 -133.015625 24.742188 -144.984375 25.007812 -163.609375 C 25.007812 -171.058594 29.261719 -179.835938 37.242188 -181.164062 C 44.425781 -182.230469 51.078125 -176.644531 48.152344 -168.128906 C 46.554688 -163.875 42.296875 -160.414062 34.851562 -161.746094 C 32.457031 -149.242188 42.832031 -140.464844 54.800781 -141.527344 C 68.902344 -142.859375 76.882812 -154.828125 74.488281 -167.863281 C 71.828125 -180.632812 58.527344 -186.21875 46.023438 -186.21875 C 27.667969 -186.21875 13.566406 -176.109375 13.566406 -156.160156 L 13.566406 -133.015625 L 0 -133.015625 L 0 -128.492188 L 13.566406 -128.492188 L 13.566406 -21.28125 C 13.566406 -7.714844 7.183594 -4.523438 0 -4.523438 Z M 0 0 "/></g></g></g><g fill="#f67828" fill-opacity="1"><g transform="translate(277.970726, 600.993612)"><g><path d="M 20.71875 0.1875 C 23.242188 0.1875 23.894531 -0.464844 23.894531 -1.679688 C 23.894531 -2.894531 23.148438 -3.453125 21.746094 -3.828125 C 15.960938 -4.480469 15.679688 -5.414062 15.679688 -12.507812 L 15.679688 -53.015625 C 15.679688 -53.574219 15.960938 -53.949219 16.332031 -53.949219 C 16.613281 -53.949219 16.894531 -53.855469 17.265625 -53.480469 L 55.160156 -1.308594 C 55.816406 -0.464844 56.46875 0.1875 57.773438 0.1875 C 58.894531 0.1875 59.734375 -0.464844 59.734375 -1.867188 L 59.734375 -50.496094 C 59.734375 -60.109375 60.109375 -60.667969 66.082031 -61.414062 C 67.203125 -61.695312 67.949219 -62.441406 67.949219 -63.5625 C 67.949219 -64.773438 67.203125 -65.429688 64.960938 -65.429688 L 50.214844 -65.429688 C 47.695312 -65.429688 47.042969 -64.867188 47.042969 -63.65625 C 47.042969 -62.441406 47.882812 -61.695312 49.1875 -61.414062 C 54.976562 -60.667969 55.253906 -59.921875 55.253906 -52.828125 L 55.253906 -17.171875 C 55.253906 -16.148438 54.882812 -15.773438 54.507812 -15.773438 C 54.042969 -15.773438 53.574219 -16.054688 53.203125 -16.613281 L 19.601562 -64.214844 C 18.945312 -65.054688 18.199219 -65.429688 16.519531 -65.429688 L 6.160156 -65.429688 C 3.640625 -65.429688 2.988281 -64.867188 2.988281 -63.65625 C 2.988281 -62.441406 3.828125 -61.882812 5.132812 -61.507812 C 10.921875 -60.761719 11.199219 -59.921875 11.199219 -52.921875 L 11.199219 -14.839844 C 11.199219 -5.132812 10.921875 -4.667969 4.851562 -3.921875 C 3.734375 -3.640625 2.988281 -2.894531 2.988281 -1.773438 C 2.988281 -0.558594 3.734375 0.09375 5.972656 0.09375 C 11.292969 0.09375 13.90625 0.1875 20.71875 0.1875 Z M 20.71875 0.1875 "/></g></g></g><g fill="#f67828" fill-opacity="1"><g transform="translate(349.367727, 600.993612)"><g><path d="M 34.066406 1.027344 C 52.921875 1.027344 65.242188 -13.71875 65.242188 -32.761719 C 65.242188 -53.203125 51.800781 -66.363281 34.066406 -66.363281 C 15.214844 -66.363281 2.988281 -51.707031 2.988281 -32.855469 C 2.988281 -12.226562 16.425781 1.027344 34.066406 1.027344 Z M 35.46875 -3.734375 C 21.5625 -3.734375 12.320312 -20.160156 12.320312 -36.773438 C 12.320312 -52.546875 21.5625 -61.601562 32.667969 -61.601562 C 46.574219 -61.601562 55.816406 -45.359375 55.816406 -28.839844 C 55.816406 -12.878906 46.480469 -3.734375 35.46875 -3.734375 Z M 35.46875 -3.734375 "/></g></g></g><g fill="#f67828" fill-opacity="1"><g transform="translate(419.271465, 600.993612)"><g/></g></g><g fill="#f67828" fill-opacity="1"><g transform="translate(448.017037, 600.993612)"><g><path d="M 6.441406 0.09375 L 25.855469 0.09375 C 28.839844 0.09375 29.960938 -0.558594 29.960938 -1.960938 C 29.960938 -3.453125 28.933594 -4.199219 27.441406 -4.574219 C 20.347656 -5.785156 19.789062 -6.441406 19.789062 -12.414062 L 19.789062 -22.214844 C 19.789062 -25.105469 20.066406 -25.855469 23.242188 -25.855469 L 29.960938 -25.855469 C 47.226562 -25.855469 56 -32.949219 56 -45.359375 C 56 -58.242188 46.292969 -65.707031 28.5625 -65.707031 C 23.613281 -65.707031 13.441406 -65.429688 6.160156 -65.429688 C 3.640625 -65.429688 2.988281 -64.773438 2.988281 -63.5625 C 2.988281 -62.347656 3.734375 -61.695312 5.039062 -61.414062 C 10.921875 -60.667969 11.199219 -59.828125 11.199219 -52.921875 L 11.199219 -11.480469 C 11.199219 -6.441406 10.734375 -5.507812 5.039062 -4.292969 C 3.921875 -3.828125 2.988281 -3.082031 2.988281 -1.960938 C 2.988281 -0.375 3.921875 0.09375 6.441406 0.09375 Z M 23.332031 -30.242188 C 20.066406 -30.242188 19.789062 -31.546875 19.789062 -33.414062 L 19.789062 -56.5625 C 19.789062 -60.015625 20.8125 -61.136719 23.707031 -61.136719 L 27.347656 -61.136719 C 39.292969 -61.136719 46.574219 -55.253906 46.574219 -44.148438 C 46.574219 -36.027344 41.253906 -30.242188 29.867188 -30.242188 Z M 23.332031 -30.242188 "/></g></g></g><g fill="#f67828" fill-opacity="1"><g transform="translate(507.374565, 600.993612)"><g><path d="M 34.066406 1.027344 C 52.921875 1.027344 65.242188 -13.71875 65.242188 -32.761719 C 65.242188 -53.203125 51.800781 -66.363281 34.066406 -66.363281 C 15.214844 -66.363281 2.988281 -51.707031 2.988281 -32.855469 C 2.988281 -12.226562 16.425781 1.027344 34.066406 1.027344 Z M 35.46875 -3.734375 C 21.5625 -3.734375 12.320312 -20.160156 12.320312 -36.773438 C 12.320312 -52.546875 21.5625 -61.601562 32.667969 -61.601562 C 46.574219 -61.601562 55.816406 -45.359375 55.816406 -28.839844 C 55.816406 -12.878906 46.480469 -3.734375 35.46875 -3.734375 Z M 35.46875 -3.734375 "/></g></g></g><g fill="#f67828" fill-opacity="1"><g transform="translate(577.27831, 600.993612)"><g><path d="M 20.71875 0.1875 C 23.242188 0.1875 23.894531 -0.464844 23.894531 -1.679688 C 23.894531 -2.894531 23.148438 -3.453125 21.746094 -3.828125 C 15.960938 -4.480469 15.679688 -5.414062 15.679688 -12.507812 L 15.679688 -53.015625 C 15.679688 -53.574219 15.960938 -53.949219 16.332031 -53.949219 C 16.613281 -53.949219 16.894531 -53.855469 17.265625 -53.480469 L 55.160156 -1.308594 C 55.816406 -0.464844 56.46875 0.1875 57.773438 0.1875 C 58.894531 0.1875 59.734375 -0.464844 59.734375 -1.867188 L 59.734375 -50.496094 C 59.734375 -60.109375 60.109375 -60.667969 66.082031 -61.414062 C 67.203125 -61.695312 67.949219 -62.441406 67.949219 -63.5625 C 67.949219 -64.773438 67.203125 -65.429688 64.960938 -65.429688 L 50.214844 -65.429688 C 47.695312 -65.429688 47.042969 -64.867188 47.042969 -63.65625 C 47.042969 -62.441406 47.882812 -61.695312 49.1875 -61.414062 C 54.976562 -60.667969 55.253906 -59.921875 55.253906 -52.828125 L 55.253906 -17.171875 C 55.253906 -16.148438 54.882812 -15.773438 54.507812 -15.773438 C 54.042969 -15.773438 53.574219 -16.054688 53.203125 -16.613281 L 19.601562 -64.214844 C 18.945312 -65.054688 18.199219 -65.429688 16.519531 -65.429688 L 6.160156 -65.429688 C 3.640625 -65.429688 2.988281 -64.867188 2.988281 -63.65625 C 2.988281 -62.441406 3.828125 -61.882812 5.132812 -61.507812 C 10.921875 -60.761719 11.199219 -59.921875 11.199219 -52.921875 L 11.199219 -14.839844 C 11.199219 -5.132812 10.921875 -4.667969 4.851562 -3.921875 C 3.734375 -3.640625 2.988281 -2.894531 2.988281 -1.773438 C 2.988281 -0.558594 3.734375 0.09375 5.972656 0.09375 C 11.292969 0.09375 13.90625 0.1875 20.71875 0.1875 Z M 20.71875 0.1875 "/></g></g></g><g fill="#f67828" fill-opacity="1"><g transform="translate(648.675304, 600.993612)"><g><path d="M 19.320312 0.09375 L 40.882812 0.09375 C 44.148438 0.09375 44.988281 -0.652344 44.988281 -1.960938 C 44.988281 -3.082031 43.960938 -3.734375 42.28125 -4.292969 C 34.8125 -5.414062 34.347656 -6.253906 34.347656 -11.855469 L 34.347656 -55.90625 C 34.347656 -59.734375 34.628906 -60.949219 37.988281 -60.949219 L 44.335938 -60.949219 C 48.535156 -60.949219 49.28125 -58.894531 52.363281 -47.789062 C 53.480469 -44.894531 54.414062 -43.773438 56 -43.773438 C 59.082031 -43.773438 58.335938 -46.855469 55.628906 -56.65625 C 53.203125 -65.800781 52.363281 -67.015625 50.773438 -67.015625 C 48.722656 -67.015625 48.816406 -65.335938 43.773438 -65.335938 L 15.773438 -65.335938 C 11.386719 -65.335938 10.921875 -67.015625 8.960938 -67.015625 C 7.28125 -67.015625 6.160156 -64.683594 4.011719 -56.65625 C 1.585938 -47.601562 0.746094 -43.773438 3.921875 -43.773438 C 5.507812 -43.773438 6.347656 -44.894531 7.375 -47.789062 C 10.546875 -58.894531 11.292969 -60.949219 15.679688 -60.949219 L 21.933594 -60.949219 C 25.105469 -60.949219 25.480469 -59.734375 25.480469 -55.90625 L 25.480469 -11.480469 C 25.480469 -6.441406 25.015625 -5.414062 17.546875 -4.292969 C 16.148438 -3.828125 14.839844 -3.082031 14.839844 -1.960938 C 14.839844 -0.375 16.054688 0.09375 19.320312 0.09375 Z M 19.320312 0.09375 "/></g></g></g><g fill="#f67828" fill-opacity="1"><g transform="translate(710.179407, 600.993612)"><g><path d="M 34.066406 1.027344 C 52.921875 1.027344 65.242188 -13.71875 65.242188 -32.761719 C 65.242188 -53.203125 51.800781 -66.363281 34.066406 -66.363281 C 15.214844 -66.363281 2.988281 -51.707031 2.988281 -32.855469 C 2.988281 -12.226562 16.425781 1.027344 34.066406 1.027344 Z M 35.46875 -3.734375 C 21.5625 -3.734375 12.320312 -20.160156 12.320312 -36.773438 C 12.320312 -52.546875 21.5625 -61.601562 32.667969 -61.601562 C 46.574219 -61.601562 55.816406 -45.359375 55.816406 -28.839844 C 55.816406 -12.878906 46.480469 -3.734375 35.46875 -3.734375 Z M 35.46875 -3.734375 "/></g></g></g></svg>